# xmcd
#
# Track frame offsets:
#	150
#	19952
#	39671
#	57136
#	88531
#	108912
#	131816
#	153902
#	176170
#	191507
#	210244
#	235162
#
# Disc length: 3484 seconds
# Revision: 0
# Processed by: cddbd v1.5.2PL0 Copyright (c) Steve Scherf et al.
# Submitted via: dBpowerAMP V12.0
#
DISCID=990d9a0c
DTITLE=The Lucky Losers - A Wining Hand
DYEAR=2015
DGENRE=Blues
TTITLE0=Change in the Weather 
TTITLE1=I Take What I Want 
TTITLE2=What Have I Done 
TTITLE3=A Winning Hand 
TTITLE4=Suicide by Love 
TTITLE5=What Was it You Wanted 
TTITLE6=What is Success 
TTITLE7=Long Hard Road 
TTITLE8=Baby You Got What it Takes 
TTITLE9=Cry No More 
TTITLE10=Detroit City Man 
TTITLE11=Dont You Lose It 
EXTD=
EXTT0=
EXTT1=
EXTT2=
EXTT3=
EXTT4=
EXTT5=
EXTT6=
EXTT7=
EXTT8=
EXTT9=
EXTT10=
EXTT11=
PLAYORDER=
